# xmcd
#
# Track frame offsets: 
#        150
#        23852
#        51297
#        63828
#        88821
#        105678
#        154664
#
# Disc length: 2347 seconds
#
# Revision: 0
# Processed by: cddbd v1.5.2PL0 Copyright (c) Steve Scherf et al.
# Submitted via: ExactAudioCopy v1.0b3
#
DISCID=53092907
DTITLE=Deep In The Top - It's The Blues That I Choose
DYEAR=1900
DGENRE=Blues
TTITLE0=Leave Me
TTITLE1=You Better Care
TTITLE2=Had My Chance
TTITLE3=On The Ride
TTITLE4=Part-time Love
TTITLE5=I Only Have Eyes For You
TTITLE6=It's The Blues That I Choose
EXTD=
EXTT0=
EXTT1=
EXTT2=
EXTT3=
EXTT4=
EXTT5=
EXTT6=
PLAYORDER=
